<svg xmlns="http://www.w3.org/2000/svg" viewBox="0 0 751.99 76.781"><defs><style>.a{fill:#fff;}</style></defs><path class="a" d="M81.4-62.446,72.936-48.911l-1.414-.861a13.353,13.353,0,0,0,.614-2.892q0-1.6-5.841-4.983A40.238,40.238,0,0,0,46.188-63q-13.036,0-21.645,7.506Q14.95-47.188,14.95-34.022q0,12.489,8.8,20.426Q32.423-5.66,46.635-5.66a43.278,43.278,0,0,0,13.6-2.123,32.867,32.867,0,0,0,10.951-5.875V-26.332h-15.5a6.318,6.318,0,0,0-3.661.8,5.348,5.348,0,0,0-1.63,3.138H48.727V-36.976h1.661a5.311,5.311,0,0,0,1.627,3.15,6.377,6.377,0,0,0,3.654.787H82.811v1.661a5.308,5.308,0,0,0-3.15,1.63,6.4,6.4,0,0,0-.787,3.661v7.137a6.4,6.4,0,0,0,.787,3.661,5.308,5.308,0,0,0,3.15,1.63v1.415A55.359,55.359,0,0,1,45.619,1.477Q28.9,1.477,18.2-7.506A34.869,34.869,0,0,1,9.226-19.2a34.281,34.281,0,0,1-3.5-15.073,33.755,33.755,0,0,1,7.014-20.856,36.4,36.4,0,0,1,16.673-12.12A47.146,47.146,0,0,1,46.02-70.137a49.494,49.494,0,0,1,13.935,1.846,81.322,81.322,0,0,1,15.1,6.583,5.308,5.308,0,0,0,2.03.738q.738,0,2.892-2.461ZM148.668-19.38H112.511L107.323-7.813a8.821,8.821,0,0,0-.984,3.2q0,2.092,3.206,2.953V0H92.564V-1.661A6.573,6.573,0,0,0,96.409-3.6,23.41,23.41,0,0,0,99.7-9.352l22.825-49.588q1.907-4.122,1.907-5.66,0-2.153-3.076-2.646v-1.661h20v1.661q-3.076.677-3.076,2.646,0,1.169,2.461,6.583l21.9,47.681a28.8,28.8,0,0,0,3.814,6.521,6.593,6.593,0,0,0,4.061,2.153V0H152.58V-1.661q2.877-.615,2.877-2.092a16.446,16.446,0,0,0-1.477-4.061Zm-2.877-6.706L130.745-59.871,115.531-26.086Zm92.433-10.028q12.12,4.922,12.12,16.919,0,8.736-6.152,13.966a20.02,20.02,0,0,1-7.937,4.061,49.375,49.375,0,0,1-12,1.169H181.622V-1.661a5.6,5.6,0,0,0,3.138-1.692,6.18,6.18,0,0,0,.8-3.6v-55a6.161,6.161,0,0,0-.8-3.63,5.721,5.721,0,0,0-3.138-1.661v-1.661h41.344a53.249,53.249,0,0,1,10.459.831,19.571,19.571,0,0,1,6.952,2.8A15.918,15.918,0,0,1,246.006-59a18.276,18.276,0,0,1,2.061,8.49Q248.067-41.036,238.223-36.114Zm-43.866-3.261H220.5a64.707,64.707,0,0,0,9.136-.461,15.1,15.1,0,0,0,5.26-1.815q4.737-2.646,4.737-8.552a10.438,10.438,0,0,0-5.476-9.721,15.756,15.756,0,0,0-5.383-1.815,64.292,64.292,0,0,0-9.013-.461H194.357Zm0,32.669H221.8a63.141,63.141,0,0,0,9.6-.523,15.11,15.11,0,0,0,5.537-2.061q4.983-3.138,4.983-9.782,0-7.444-5.783-10.951a15.559,15.559,0,0,0-5.629-2.092A59.937,59.937,0,0,0,221-32.669h-26.64ZM306.916-70.383q18.4,0,29.654,9.6,12,10.151,12,26.824a33.17,33.17,0,0,1-5.906,19.072Q331.526,1.477,307.039,1.477q-18.272,0-29.531-9.6-12-10.213-12-26.332a34.215,34.215,0,0,1,5.845-19.564,35.308,35.308,0,0,1,17.411-13.351A53.34,53.34,0,0,1,306.916-70.383Zm0,7.137q-15.012,0-24.179,9.229a26.611,26.611,0,0,0-8,19.564,26.611,26.611,0,0,0,8,19.564q9.167,9.229,24.3,9.229t24.3-9.229a26.179,26.179,0,0,0,8-19.2q0-12.12-8-19.934Q322.113-63.123,306.916-63.246ZM413.972-32.3V-6.952a6.18,6.18,0,0,0,.8,3.6,5.6,5.6,0,0,0,3.138,1.692V0H401.236V-1.661a5.6,5.6,0,0,0,3.138-1.692,6.18,6.18,0,0,0,.8-3.6v-55a6.161,6.161,0,0,0-.8-3.63,5.721,5.721,0,0,0-3.138-1.661v-1.661h55.986a6.18,6.18,0,0,0,3.6-.8,5.6,5.6,0,0,0,1.692-3.138h1.661v14.581h-1.661a5.553,5.553,0,0,0-1.692-3.15,6.258,6.258,0,0,0-3.6-.787H413.972v23.194h28.116a6.239,6.239,0,0,0,3.63-.787,5.671,5.671,0,0,0,1.661-3.15h1.661v14.581h-1.661a5.72,5.72,0,0,0-1.661-3.138,6.161,6.161,0,0,0-3.63-.8ZM483.526-6.952v-55a6.161,6.161,0,0,0-.8-3.63,5.721,5.721,0,0,0-3.138-1.661v-1.661h16.673v1.661a5.721,5.721,0,0,0-3.138,1.661,6.161,6.161,0,0,0-.8,3.63v55a6.18,6.18,0,0,0,.8,3.6,5.6,5.6,0,0,0,3.138,1.692V0H479.589V-1.661a5.6,5.6,0,0,0,3.138-1.692A6.18,6.18,0,0,0,483.526-6.952Zm44.33.246h42.021a6.4,6.4,0,0,0,3.661-.787,5.553,5.553,0,0,0,1.692-3.15h1.661V3.938h-1.661A5.6,5.6,0,0,0,573.537.8a6.318,6.318,0,0,0-3.661-.8H515.12V-1.661a5.6,5.6,0,0,0,3.138-1.692,6.18,6.18,0,0,0,.8-3.6v-55a6.161,6.161,0,0,0-.8-3.63,5.721,5.721,0,0,0-3.138-1.661v-1.661h16.673v1.661a5.721,5.721,0,0,0-3.138,1.661,6.161,6.161,0,0,0-.8,3.63ZM630.233,0,600.917-58.085V-6.953a6.182,6.182,0,0,0,.8,3.6,5.6,5.6,0,0,0,3.138,1.692V0h-15.2V-1.661A5.6,5.6,0,0,0,592.8-3.353a6.18,6.18,0,0,0,.8-3.6v-55a6.161,6.161,0,0,0-.8-3.63,5.721,5.721,0,0,0-3.138-1.661v-1.661h20.927v1.661q-3.077.923-3.077,2.707a14.247,14.247,0,0,0,1.539,3.876l21.8,44,21.925-44a12.067,12.067,0,0,0,1.477-3.876q0-1.784-3.077-2.707v-1.661h21.109v1.661a5.6,5.6,0,0,0-3.138,1.692,6.18,6.18,0,0,0-.8,3.6v55a6.18,6.18,0,0,0,.8,3.6,5.6,5.6,0,0,0,3.138,1.692V0H655.612V-1.661a5.6,5.6,0,0,0,3.138-1.692,6.182,6.182,0,0,0,.8-3.6V-58.085ZM756.6-65.338l-6.768,13.412-1.477-.738a17.379,17.379,0,0,0,.308-2.461q0-1.477-4-3.568-8.49-4.553-20.672-4.553-9.782,0-16.611,3.63-6.829,3.691-6.829,10.274a8.828,8.828,0,0,0,1.723,5.322,9.227,9.227,0,0,0,4.614,3.353,27.008,27.008,0,0,0,6.275,1.292q3.384.308,14.52.738a104.828,104.828,0,0,1,14.058,1.169A25.914,25.914,0,0,1,749.9-34.7a14.494,14.494,0,0,1,5.722,5.875,17.29,17.29,0,0,1,2.092,8.4,17.83,17.83,0,0,1-7.813,15.2q-9.352,6.706-24.855,6.706A59.762,59.762,0,0,1,709.016-.861a69.586,69.586,0,0,1-15.6-6.4,3.273,3.273,0,0,0-1.477-.615q-.923,0-2.769,2.153l-1.415-.923,7.813-13.1,1.477.861-.246.984a5.644,5.644,0,0,0-.308,1.6q0,1.723,6.275,5.045a46.381,46.381,0,0,0,21.964,5.6q10.4,0,17.288-3.568a14.032,14.032,0,0,0,5.291-4.645A10.792,10.792,0,0,0,749.283-20a8.912,8.912,0,0,0-1.661-5.291,9.018,9.018,0,0,0-4.368-3.322,27.444,27.444,0,0,0-5.629-1.23q-3.107-.369-11.72-.677-10.151-.431-14.52-1.015a39.081,39.081,0,0,1-8.244-2,16.913,16.913,0,0,1-7.937-5.783,16.02,16.02,0,0,1-3.015-9.721q0-9.905,8.982-15.565,9.167-5.783,23.317-5.783A63.629,63.629,0,0,1,750.452-64.6a12.248,12.248,0,0,0,2.276.8q.984,0,2.338-2.276Z" transform="translate(-5.722 72.844)"/></svg>