<svg xmlns="http://www.w3.org/2000/svg" viewBox="0 0 961.362 108.601"><defs><style>.a{fill:#fff;}</style></defs><path class="a" d="M116.455-90.381,105.212-72.51l-1.9-1.314a7.437,7.437,0,0,0,1.317-3.283q0-2.261-7.833-6.42A64.118,64.118,0,0,0,65.9-91.7q-18.376,0-30.968,10.318Q20.508-69.673,20.508-49.768q0,19.392,13.77,30.881Q46.948-8.276,66.65-8.276a60.112,60.112,0,0,0,19.812-3.259,45.232,45.232,0,0,0,15.857-9.119V-39.111H78.662a7.521,7.521,0,0,0-4.358.952,6.367,6.367,0,0,0-1.941,3.735H70.02v-18.9h2.344A6.367,6.367,0,0,0,74.3-49.585a7.521,7.521,0,0,0,4.358.952h39.331v2.344a6.81,6.81,0,0,0-3.735,1.978q-.952,1.245-.952,4.321v12.964q0,3.076.952,4.321a6.81,6.81,0,0,0,3.735,1.978v2.051a89.758,89.758,0,0,1-15.6,11.5Q86.5,1.758,66.138,1.758q-25.049,0-40.5-13.55A49.382,49.382,0,0,1,13.55-27.759,51.523,51.523,0,0,1,8.5-50.171,48.544,48.544,0,0,1,18.384-80.2,52.234,52.234,0,0,1,42.993-97.852a69.43,69.43,0,0,1,23.438-3.882A74.975,74.975,0,0,1,86.792-99.1a93.846,93.846,0,0,1,20.215,8.716,13.349,13.349,0,0,0,3.882,1.758q1.172,0,3.589-3.076Zm83.132,66.817H154.668L147.283-7.629a9.391,9.391,0,0,0-1.046,3.2q0,1.846,3.642,2.461V0H131.146V-1.969a6.606,6.606,0,0,0,3.845-1.846,26.034,26.034,0,0,0,3.476-6.152l30.762-66.384a10.042,10.042,0,0,0,1.107-3.261q0-1.6-3.015-2.4v-1.969h20.426v1.969q-3.015.984-3.015,2.584a10.641,10.641,0,0,0,1.107,3.076l29.47,63.984q3.261,7.075,4.307,8.306t4.553,2.092V0H204.236V-1.969q3.579-.492,3.579-2.707a11.624,11.624,0,0,0-1.354-3.814Zm-3.549-8-18.91-41.5-18.89,41.5ZM304.367-43.62q14.643,4.922,14.643,20.3a22.377,22.377,0,0,1-3.937,13.1,20.715,20.715,0,0,1-10.459,7.906Q298.03,0,285.849,0H236.937V-1.969a5.72,5.72,0,0,0,3.138-1.661,6.161,6.161,0,0,0,.8-3.63V-76.72a6.318,6.318,0,0,0-.8-3.661,5.348,5.348,0,0,0-3.138-1.63v-1.969h50.08a53.144,53.144,0,0,1,12.212,1.169,23.638,23.638,0,0,1,8.521,3.876q8.49,6.091,8.49,17.473Q316.241-49.342,304.367-43.62Zm-53.833-4.122H282.9a89.92,89.92,0,0,0,10.305-.431,25.159,25.159,0,0,0,6.306-1.6,11.691,11.691,0,0,0,5.537-4.553,12.949,12.949,0,0,0,1.969-7.137,13.149,13.149,0,0,0-3.507-9.229,14.75,14.75,0,0,0-7.352-4.153q-4.522-1.138-13.874-1.138H250.534Zm0,39.744h33.715a90.686,90.686,0,0,0,10.767-.461,23.228,23.228,0,0,0,6.521-1.815,12.906,12.906,0,0,0,5.752-5.168,15.279,15.279,0,0,0,2.061-8,15.276,15.276,0,0,0-3.63-10.274,15.051,15.051,0,0,0-7.69-4.768q-4.676-1.261-14.4-1.261h-33.1ZM387.026-85.456q22.21,0,35.807,11.628a40.4,40.4,0,0,1,11.443,15.812,43.385,43.385,0,0,1,3.138,16.55,40.325,40.325,0,0,1-6.829,22.456A42.081,42.081,0,0,1,409.728-2.338a62.809,62.809,0,0,1-22.579,3.814q-22.087,0-35.622-11.628a41.863,41.863,0,0,1-11.443-15.812,41.8,41.8,0,0,1-3.138-16.058,41.69,41.69,0,0,1,6.768-23.01,42.338,42.338,0,0,1,20.918-16.611A65.167,65.167,0,0,1,387.026-85.456Zm0,8.429q-18.888,0-29.9,10.582-10.09,9.721-10.09,24.425,0,14.766,10.09,24.486Q368.077-6.952,387.149-6.952q19.134,0,30.146-10.582a32.092,32.092,0,0,0,10.028-23.994q0-15.442-10.028-24.917a34.857,34.857,0,0,0-12.92-7.937A55.052,55.052,0,0,0,387.026-77.027ZM546.819-90.454v34.131h43.359a7.521,7.521,0,0,0,4.358-.952,6.367,6.367,0,0,0,1.941-3.735h2.344v18.9h-2.344a6.367,6.367,0,0,0-1.941-3.735,7.522,7.522,0,0,0-4.358-.952H546.819V-8.643a7.569,7.569,0,0,0,.916,4.321,6.669,6.669,0,0,0,3.772,1.978V0H530.633V-2.344a6.81,6.81,0,0,0,3.735-1.978q.952-1.245.952-4.321v-82.69a7.521,7.521,0,0,0-.952-4.358,6.367,6.367,0,0,0-3.735-1.941v-2.344h81.3a7.617,7.617,0,0,0,4.358-.937,6.319,6.319,0,0,0,1.941-3.75h2.344v18.9h-2.344a6.3,6.3,0,0,0-1.941-3.758,7.666,7.666,0,0,0-4.358-.93ZM644.546-7.26V-76.72a6.318,6.318,0,0,0-.8-3.661,5.348,5.348,0,0,0-3.138-1.63v-1.969h17.534v1.969a5.721,5.721,0,0,0-3.138,1.661,6.161,6.161,0,0,0-.8,3.63V-7.26a6.358,6.358,0,0,0,.769,3.63,5.6,5.6,0,0,0,3.168,1.661V0H640.609V-1.969a5.6,5.6,0,0,0,3.168-1.661A6.358,6.358,0,0,0,644.546-7.26ZM694.29-8h53.648a6.318,6.318,0,0,0,3.661-.8,5.348,5.348,0,0,0,1.63-3.138H755.2V3.938h-1.969A5.348,5.348,0,0,0,751.6.8a6.318,6.318,0,0,0-3.661-.8H680.693V-1.969a5.6,5.6,0,0,0,3.168-1.661,6.358,6.358,0,0,0,.769-3.63V-76.72a6.161,6.161,0,0,0-.8-3.63,5.721,5.721,0,0,0-3.138-1.661v-1.969h17.534v1.969a5.721,5.721,0,0,0-3.138,1.661,6.161,6.161,0,0,0-.8,3.63ZM818.2,0,782.855-70.614V-7.264a6.189,6.189,0,0,0,.8,3.6,5.6,5.6,0,0,0,3.138,1.693V0H770.181V-1.969a5.72,5.72,0,0,0,3.138-1.661,6.161,6.161,0,0,0,.8-3.63V-76.72a6.318,6.318,0,0,0-.8-3.661,5.348,5.348,0,0,0-3.138-1.63v-1.969h21.732v1.969q-3.01,1.046-3.01,2.584,0,.738,2.025,4.737l27.98,55.36,28.1-55.852a11.441,11.441,0,0,0,1.478-4.184q0-1.6-3.016-2.646v-1.969H867.45v1.969a5.721,5.721,0,0,0-3.138,1.661,6.161,6.161,0,0,0-.8,3.63V-7.26a6.18,6.18,0,0,0,.8,3.6,5.6,5.6,0,0,0,3.138,1.692V0H849.916V-1.969a5.6,5.6,0,0,0,3.168-1.662,6.368,6.368,0,0,0,.769-3.633V-70.614ZM968.689-78.762l-8.8,15.886-1.723-.923a14.857,14.857,0,0,0,1.046-3.445q0-1.846-4.553-4a61.122,61.122,0,0,0-26.209-5.783,43.6,43.6,0,0,0-19.811,4.236,17.617,17.617,0,0,0-6.429,5.4,11.846,11.846,0,0,0-2.369,7,10.186,10.186,0,0,0,1.846,5.8,11.365,11.365,0,0,0,4.86,4.084,26.894,26.894,0,0,0,7.844,2.118q4.522.584,14.735.89a200.641,200.641,0,0,1,20.241,1.323A29.052,29.052,0,0,1,959.4-43.066q10.459,5.845,10.459,17.78,0,11.382-9.475,18.642-10.521,8.121-28.978,8.121a71.385,71.385,0,0,1-18.58-2.153,96.948,96.948,0,0,1-18.949-7.937,16.385,16.385,0,0,0-3.63-1.415q-.923,0-2.892,2.215l-1.661-1.046L894.922-24.3l1.723.984A10.143,10.143,0,0,0,895.476-20q0,1.969,7.875,6.091a61.978,61.978,0,0,0,13.627,5.322,58.9,58.9,0,0,0,14.243,1.63q15.565,0,23.625-6.829,5.353-4.553,5.353-10.828,0-8.244-9.167-11.382a24.7,24.7,0,0,0-6.122-1.323q-3.168-.277-18-.831a116.077,116.077,0,0,1-16.581-1.6,35.192,35.192,0,0,1-10.674-3.814,18.158,18.158,0,0,1-6.921-6.891,19.006,19.006,0,0,1-2.553-9.659,20.523,20.523,0,0,1,6.645-15.319q4.922-4.676,13.6-7.352a64.241,64.241,0,0,1,19.011-2.676,69.372,69.372,0,0,1,15.658,1.673,90.348,90.348,0,0,1,16.334,5.763,9.981,9.981,0,0,0,2.522.868q1.107,0,3.015-2.479Z" transform="translate(-8.496 104.663)"/></svg>